<svg xmlns="http://www.w3.org/2000/svg" viewBox="0 0 1200 800" role="img">
  <rect width="1200" height="800" fill="#e8e2d2"/>
  <path d="M0 590 C180 520 300 620 470 548 C650 470 770 560 1200 430 L1200 800 L0 800 Z" fill="#1d6f76"/>
  <path d="M0 650 C220 600 390 690 610 612 C820 540 980 620 1200 580 L1200 800 L0 800 Z" fill="#20201d" opacity=".9"/>
  <circle cx="960" cy="150" r="82" fill="#b8402a"/>
  <rect x="92" y="96" width="340" height="470" rx="12" fill="#fbfaf6" stroke="#20201d" stroke-width="6"/>
  <path d="M130 170 L395 170 M130 230 L360 230 M130 290 L382 290 M130 350 L310 350" stroke="#20201d" stroke-width="18" stroke-linecap="round"/>
  <path d="M640 180 C705 110 820 105 895 170 C970 236 950 352 862 398 C762 450 628 370 640 180 Z" fill="#f1eee5" stroke="#20201d" stroke-width="6"/>
  <path d="M700 248 C755 212 828 214 884 258" fill="none" stroke="#b9852b" stroke-width="20" stroke-linecap="round"/>
  <path d="M706 315 C770 350 828 350 890 312" fill="none" stroke="#b8402a" stroke-width="20" stroke-linecap="round"/>
  <path d="M755 520 l160 -45 l-52 110 l-24 -58 l-68 74 Z" fill="#fbfaf6" stroke="#20201d" stroke-width="6"/>
  <text x="98" y="716" font-size="56" font-family="serif" font-weight="700" fill="#fbfaf6">東嬉遊記</text>
</svg>
